<?xml version="1.0" encoding="utf-8"?>
<!-- Generator: Adobe Illustrator 27.5.0, SVG Export Plug-In . SVG Version: 6.00 Build 0)  -->
<svg version="1.1" id="Layer_1" xmlns="http://www.w3.org/2000/svg" xmlns:xlink="http://www.w3.org/1999/xlink" x="0px" y="0px"
	 viewBox="0 0 265.2 661" style="enable-background:new 0 0 265.2 661;" xml:space="preserve">
<style type="text/css">
	.st0{fill:#5243BC;}
	.st1{fill:#E7E7E7;}
</style>
<polygon class="st0" points="265.2,0 0.8,661 0.8,0 "/>
<g>
	<path class="st1" d="M54.7,174.7l5.6-31.9h15.7c5.5,0,8.3,2.7,8.3,7.1c0,3.8-2.4,6.5-5.1,7.5c2.1,0.9,3.7,2.6,3.7,6
		c0,6.6-4.6,11.2-13.8,11.2H54.7z M63.6,160.6l-1.5,8.6h8.4c3.5,0,5.8-2.4,5.8-5.3c0-2.6-1.5-3.3-4.2-3.3H63.6z M65.8,148.3
		l-1.2,6.9H73c3.1,0,4.8-1.5,4.8-4.2c0-2.2-1.2-2.7-3.9-2.7H65.8z"/>
	<path class="st1" d="M97.2,174.7c0-0.3-0.1-0.6-0.1-1c0-0.3,0-0.7,0.1-1.1c-1.8,1.6-4.5,2.7-7.6,2.7c-4.7,0-6.9-2.2-6.9-5.4
		c0-7,4.9-8.5,12.5-9.6c4.3-0.6,4.5-1.4,4.5-2.7c0-2-1.3-2.4-3.6-2.4c-2.8,0-4.2,1.4-4.8,3.5h-5.8c1-4.9,4.2-8.3,11.8-8.3
		c6.3,0,8.7,2.4,8.7,6.6c0,0.9-0.1,1.7-0.2,2.7l-2.6,14.9H97.2z M98.8,163.1c-0.7,0.6-1.9,1-4.3,1.4c-4.5,0.8-5.4,2-5.4,4.2
		c0,1.5,1.2,2.1,2.8,2.1c3,0,5.9-2.4,6.4-5.1L98.8,163.1z"/>
	<path class="st1" d="M123.5,159.5c0-0.2,0-0.4,0-0.7c0-2.4-1.7-3.2-3.8-3.2c-3.3,0-6.2,2.4-6.2,8.9c0,4.2,1.5,5.5,3.5,5.5
		c2.4,0,4.6-1.4,5.3-3.9h6.3c-1.6,5.5-6.7,9.2-12.4,9.2c-5.5,0-8.9-3.4-8.9-9.8c0-10.1,5.6-15,13.5-15c5.7,0,9.2,3,9.2,7.9
		c0,0.4,0,0.8,0,1.2H123.5z"/>
	<path class="st1" d="M143.5,174.7l-3.4-10.8l-3.7,3.3l-1.3,7.5h-6.3l5.7-32.3h6.3l-3,17.2l9.1-8.5h7.8l-9.5,8.7l5.1,14.9H143.5z"/>
</g>
</svg>
