<?xml version="1.0" encoding="utf-8"?>
<!-- Generator: Adobe Illustrator 27.5.0, SVG Export Plug-In . SVG Version: 6.00 Build 0)  -->
<svg version="1.1" id="Layer_1" xmlns="http://www.w3.org/2000/svg" xmlns:xlink="http://www.w3.org/1999/xlink" x="0px" y="0px"
	 viewBox="0 0 265.2 661" style="enable-background:new 0 0 265.2 661;" xml:space="preserve">
<style type="text/css">
	.st0{fill:#8E43BC;}
	.st1{fill:#E7E7E7;}
</style>
<polygon class="st0" points="0.8,661 265.2,0 265.2,661 "/>
<g>
	<path class="st1" d="M60.5,618.1l-2.9,16.8h-8.3l7-39.8h28.4l-1.2,7h-20l-1.6,9.1h17.5l-1.3,7H60.5z"/>
	<path class="st1" d="M79.1,623c0-10.7,7.5-18.4,18.2-18.4c8,0,12.6,5,12.6,12.6c0,10.8-7.5,18.5-18.1,18.5
		C83.6,635.7,79.1,630.5,79.1,623z M102,617.7c0-5.3-2-6.5-5.8-6.5c-6.1,0-9,4.4-9,11.3c0,5.1,1.9,6.6,5.8,6.6
		C99,629.1,102,624.7,102,617.7z"/>
	<path class="st1" d="M109.8,634.9l5.2-29.5h7.3l-0.7,3.5c3.3-4,6.4-4.3,9.5-4.3h1l-1.4,8c-0.7-0.1-1.4-0.2-2.2-0.2
		c-4.8,0-7.6,2.4-8.4,7.1l-2.7,15.4H109.8z"/>
	<path class="st1" d="M153.4,634.9l-1.7-17.2l-7.7,17.2h-8l-3.2-29.5h8l1.4,19l7.4-19h7.9l1.3,19l7.9-19h8.3l-13.7,29.5H153.4z"/>
	<path class="st1" d="M188,634.9c-0.1-0.4-0.1-0.8-0.1-1.3c0-0.4,0.1-0.9,0.1-1.4c-2.2,2-5.6,3.4-9.5,3.4c-5.9,0-8.6-2.7-8.6-6.7
		c0-8.8,6.2-10.7,15.6-11.9c5.3-0.7,5.6-1.7,5.6-3.4c0-2.5-1.7-3.1-4.5-3.1c-3.5,0-5.3,1.7-6.1,4.4h-7.3c1.2-6.1,5.3-10.4,14.8-10.4
		c7.9,0,10.9,2.9,10.9,8.3c0,1.1-0.1,2.2-0.3,3.4l-3.3,18.7H188z M189.9,620.4c-0.9,0.8-2.3,1.2-5.3,1.7c-5.6,1-6.7,2.5-6.7,5.3
		c0,1.9,1.4,2.6,3.5,2.6c3.8,0,7.3-2.9,8-6.4L189.9,620.4z"/>
	<path class="st1" d="M198.6,634.9l5.2-29.5h7.3l-0.7,3.5c3.3-4,6.4-4.3,9.5-4.3h1l-1.4,8c-0.7-0.1-1.4-0.2-2.2-0.2
		c-4.8,0-7.6,2.4-8.4,7.1l-2.7,15.4H198.6z"/>
	<path class="st1" d="M236.6,634.9l0.6-3.6c-2.4,3-5.4,4.4-9,4.4c-6.4,0-10.4-4.6-10.4-12.4c0-10.4,6.1-18.7,15.2-18.7
		c3.7,0,6.3,1.5,7.9,4.6l2.6-14.6h7.7l-7.1,40.3H236.6z M239.5,618c0-5.3-1.7-6.7-5.2-6.7c-6.1,0-8.5,4.9-8.5,11c0,4.7,2,7,5.3,7
		C235.4,629.3,239.5,624.9,239.5,618z"/>
</g>
</svg>
